<mxfile host="app.diagrams.net" modified="2023-12-13T03:48:48.856Z" agent="Mozilla/5.0 (Windows NT 10.0; Win64; x64) AppleWebKit/537.36 (KHTML, like Gecko) Chrome/92.0.4515.131 Safari/537.36 Edg/92.0.902.67" etag="qMMZUpZsiMiAEWlbw1Zt" version="22.1.8" type="github">
  <diagram name="Page-1" id="03018318-947c-dd8e-b7a3-06fadd420f32">
    <mxGraphModel dx="1949" dy="880" grid="1" gridSize="10" guides="1" tooltips="1" connect="1" arrows="1" fold="1" page="1" pageScale="1" pageWidth="1100" pageHeight="850" background="none" math="0" shadow="0">
      <root>
        <mxCell id="0" />
        <mxCell id="1" parent="0" />
        <mxCell id="677b7b8949515195-1" value="" style="whiteSpace=wrap;html=1;rounded=0;shadow=0;labelBackgroundColor=none;strokeColor=#000000;strokeWidth=1;fillColor=none;fontFamily=Verdana;fontSize=12;fontColor=#000000;align=center;comic=1;" parent="1" vertex="1">
          <mxGeometry x="20" y="20" width="1060" height="1420" as="geometry" />
        </mxCell>
        <mxCell id="677b7b8949515195-2" value="LOGO" style="whiteSpace=wrap;html=1;rounded=0;shadow=0;labelBackgroundColor=none;strokeWidth=1;fontFamily=Verdana;fontSize=28;align=center;comic=1;" parent="1" vertex="1">
          <mxGeometry x="40" y="30" width="190" height="50" as="geometry" />
        </mxCell>
        <mxCell id="677b7b8949515195-9" value="" style="line;strokeWidth=1;html=1;rounded=0;shadow=0;labelBackgroundColor=none;fillColor=none;fontFamily=Verdana;fontSize=14;fontColor=#000000;align=center;comic=1;" parent="1" vertex="1">
          <mxGeometry x="20" y="90" width="1060" height="10" as="geometry" />
        </mxCell>
        <mxCell id="677b7b8949515195-16" value="" style="verticalLabelPosition=bottom;shadow=0;dashed=0;align=center;html=1;verticalAlign=top;strokeWidth=1;shape=mxgraph.mockup.graphics.simpleIcon;strokeColor=#999999;rounded=0;labelBackgroundColor=none;fontFamily=Verdana;fontSize=14;fontColor=#000000;comic=1;" parent="1" vertex="1">
          <mxGeometry x="45" y="220" width="285" height="180" as="geometry" />
        </mxCell>
        <mxCell id="8gUWTxBggKrRHHZYkB5M-9" value="--Piih--" style="strokeWidth=1;shadow=0;dashed=0;align=center;html=1;shape=mxgraph.mockup.forms.comboBox;strokeColor=#999999;fillColor=#ddeeff;align=left;fillColor2=#aaddff;mainText=;fontColor=#666666;fontSize=17;spacingLeft=3;" vertex="1" parent="1">
          <mxGeometry x="60" y="170" width="550" height="30" as="geometry" />
        </mxCell>
        <mxCell id="8gUWTxBggKrRHHZYkB5M-10" value="Unit Kerja" style="text;html=1;points=[];align=left;verticalAlign=top;spacingTop=-4;fontSize=14;fontFamily=Verdana" vertex="1" parent="1">
          <mxGeometry x="60" y="140" width="170" height="20" as="geometry" />
        </mxCell>
        <mxCell id="8gUWTxBggKrRHHZYkB5M-12" value="" style="whiteSpace=wrap;html=1;rounded=0;shadow=0;labelBackgroundColor=none;strokeWidth=1;fillColor=none;fontFamily=Verdana;fontSize=12;align=center;comic=1;" vertex="1" parent="1">
          <mxGeometry x="40" y="140" width="1020" height="70" as="geometry" />
        </mxCell>
        <mxCell id="8gUWTxBggKrRHHZYkB5M-13" value="Dashboard Data Kepegawaian" style="text;html=1;points=[];align=left;verticalAlign=top;spacingTop=-4;fontSize=14;fontFamily=Verdana" vertex="1" parent="1">
          <mxGeometry x="45" y="110" width="170" height="20" as="geometry" />
        </mxCell>
        <mxCell id="8gUWTxBggKrRHHZYkB5M-14" value="&lt;font style=&quot;font-size: 12px;&quot;&gt;Data Kepegawain&lt;/font&gt;" style="strokeWidth=1;shadow=0;dashed=0;align=center;html=1;shape=mxgraph.mockup.buttons.button;strokeColor=#666666;fontColor=#ffffff;mainText=;buttonStyle=round;fontSize=17;fontStyle=1;fillColor=#008cff;whiteSpace=wrap;" vertex="1" parent="1">
          <mxGeometry x="940" y="105" width="120" height="30" as="geometry" />
        </mxCell>
        <mxCell id="8gUWTxBggKrRHHZYkB5M-15" value="" style="verticalLabelPosition=bottom;shadow=0;dashed=0;align=center;html=1;verticalAlign=top;strokeWidth=1;shape=mxgraph.mockup.graphics.simpleIcon;strokeColor=#999999;rounded=0;labelBackgroundColor=none;fontFamily=Verdana;fontSize=14;fontColor=#000000;comic=1;" vertex="1" parent="1">
          <mxGeometry x="400" y="220" width="285" height="180" as="geometry" />
        </mxCell>
        <mxCell id="8gUWTxBggKrRHHZYkB5M-16" value="" style="verticalLabelPosition=bottom;shadow=0;dashed=0;align=center;html=1;verticalAlign=top;strokeWidth=1;shape=mxgraph.mockup.graphics.simpleIcon;strokeColor=#999999;rounded=0;labelBackgroundColor=none;fontFamily=Verdana;fontSize=14;fontColor=#000000;comic=1;" vertex="1" parent="1">
          <mxGeometry x="770" y="220" width="285" height="180" as="geometry" />
        </mxCell>
        <mxCell id="8gUWTxBggKrRHHZYkB5M-17" value="Jumlah Pegawai" style="text;html=1;points=[];align=left;verticalAlign=top;spacingTop=-4;fontSize=14;fontFamily=Verdana" vertex="1" parent="1">
          <mxGeometry x="130" y="360" width="170" height="20" as="geometry" />
        </mxCell>
        <mxCell id="8gUWTxBggKrRHHZYkB5M-18" value="Jumlah Pegawai Laki-Laki" style="text;html=1;points=[];align=left;verticalAlign=top;spacingTop=-4;fontSize=14;fontFamily=Verdana" vertex="1" parent="1">
          <mxGeometry x="465" y="360" width="170" height="20" as="geometry" />
        </mxCell>
        <mxCell id="8gUWTxBggKrRHHZYkB5M-19" value="Jumlah Pegawai Perempuan" style="text;html=1;points=[];align=left;verticalAlign=top;spacingTop=-4;fontSize=14;fontFamily=Verdana" vertex="1" parent="1">
          <mxGeometry x="810" y="360" width="170" height="20" as="geometry" />
        </mxCell>
        <mxCell id="8gUWTxBggKrRHHZYkB5M-22" value="" style="whiteSpace=wrap;html=1;rounded=0;shadow=0;labelBackgroundColor=none;strokeWidth=1;fillColor=none;fontFamily=Verdana;fontSize=12;align=center;comic=1;" vertex="1" parent="1">
          <mxGeometry x="60" y="440" width="470" height="240" as="geometry" />
        </mxCell>
        <mxCell id="8gUWTxBggKrRHHZYkB5M-23" value="" style="whiteSpace=wrap;html=1;rounded=0;shadow=0;labelBackgroundColor=none;strokeWidth=1;fillColor=none;fontFamily=Verdana;fontSize=12;align=center;comic=1;" vertex="1" parent="1">
          <mxGeometry x="590" y="440" width="470" height="240" as="geometry" />
        </mxCell>
        <mxCell id="8gUWTxBggKrRHHZYkB5M-24" value="" style="verticalLabelPosition=bottom;shadow=0;dashed=0;align=center;html=1;verticalAlign=top;strokeWidth=1;shape=mxgraph.mockup.graphics.pieChart;strokeColor=#008cff;parts=10,20,35;partColors=#e0e0e0,#d0d0d0,#c0c0c0,#b0b0b0,#a0a0a0;strokeWidth=2;" vertex="1" parent="1">
          <mxGeometry x="220" y="490" width="165" height="160" as="geometry" />
        </mxCell>
        <mxCell id="8gUWTxBggKrRHHZYkB5M-25" value="" style="verticalLabelPosition=bottom;shadow=0;dashed=0;align=center;html=1;verticalAlign=top;strokeWidth=1;shape=mxgraph.mockup.graphics.columnChart;strokeColor=none;strokeColor2=none;strokeColor3=#666666;fillColor2=#008cff;fillColor3=#dddddd;" vertex="1" parent="1">
          <mxGeometry x="685" y="495" width="295" height="150" as="geometry" />
        </mxCell>
        <mxCell id="8gUWTxBggKrRHHZYkB5M-26" value="&lt;font style=&quot;font-size: 12px;&quot;&gt;Lihat Detail&lt;/font&gt;" style="strokeWidth=1;shadow=0;dashed=0;align=center;html=1;shape=mxgraph.mockup.buttons.button;strokeColor=#666666;fontColor=#ffffff;mainText=;buttonStyle=round;fontSize=17;fontStyle=1;fillColor=#008cff;whiteSpace=wrap;" vertex="1" parent="1">
          <mxGeometry x="70" y="455" width="120" height="30" as="geometry" />
        </mxCell>
        <mxCell id="8gUWTxBggKrRHHZYkB5M-27" value="&lt;font style=&quot;font-size: 12px;&quot;&gt;Lihat Detail&lt;/font&gt;" style="strokeWidth=1;shadow=0;dashed=0;align=center;html=1;shape=mxgraph.mockup.buttons.button;strokeColor=#666666;fontColor=#ffffff;mainText=;buttonStyle=round;fontSize=17;fontStyle=1;fillColor=#008cff;whiteSpace=wrap;" vertex="1" parent="1">
          <mxGeometry x="600" y="450" width="100" height="30" as="geometry" />
        </mxCell>
        <mxCell id="8gUWTxBggKrRHHZYkB5M-30" value="" style="whiteSpace=wrap;html=1;rounded=0;shadow=0;labelBackgroundColor=none;strokeWidth=1;fillColor=none;fontFamily=Verdana;fontSize=12;align=center;comic=1;" vertex="1" parent="1">
          <mxGeometry x="45" y="760" width="990" height="240" as="geometry" />
        </mxCell>
        <mxCell id="8gUWTxBggKrRHHZYkB5M-31" value="" style="verticalLabelPosition=bottom;shadow=0;dashed=0;align=center;html=1;verticalAlign=top;strokeWidth=1;shape=mxgraph.mockup.graphics.columnChart;strokeColor=none;strokeColor2=none;strokeColor3=#666666;fillColor2=#008cff;fillColor3=#dddddd;" vertex="1" parent="1">
          <mxGeometry x="400" y="820" width="295" height="150" as="geometry" />
        </mxCell>
        <mxCell id="8gUWTxBggKrRHHZYkB5M-32" value="&lt;font style=&quot;font-size: 12px;&quot;&gt;Lihat Detail&lt;/font&gt;" style="strokeWidth=1;shadow=0;dashed=0;align=center;html=1;shape=mxgraph.mockup.buttons.button;strokeColor=#666666;fontColor=#ffffff;mainText=;buttonStyle=round;fontSize=17;fontStyle=1;fillColor=#008cff;whiteSpace=wrap;" vertex="1" parent="1">
          <mxGeometry x="55" y="770" width="100" height="30" as="geometry" />
        </mxCell>
        <mxCell id="8gUWTxBggKrRHHZYkB5M-33" value="Jenis jabatan" style="text;html=1;points=[];align=left;verticalAlign=top;spacingTop=-4;fontSize=14;fontFamily=Verdana" vertex="1" parent="1">
          <mxGeometry x="260" y="455" width="170" height="20" as="geometry" />
        </mxCell>
        <mxCell id="8gUWTxBggKrRHHZYkB5M-34" value="Kualifikasi Pendidikan" style="text;html=1;points=[];align=left;verticalAlign=top;spacingTop=-4;fontSize=14;fontFamily=Verdana" vertex="1" parent="1">
          <mxGeometry x="747.5" y="460" width="170" height="20" as="geometry" />
        </mxCell>
        <mxCell id="8gUWTxBggKrRHHZYkB5M-35" value="Golongan" style="text;html=1;points=[];align=left;verticalAlign=top;spacingTop=-4;fontSize=14;fontFamily=Verdana" vertex="1" parent="1">
          <mxGeometry x="500" y="775" width="70" height="20" as="geometry" />
        </mxCell>
        <mxCell id="8gUWTxBggKrRHHZYkB5M-36" value="" style="verticalLabelPosition=bottom;shadow=0;dashed=0;align=center;html=1;verticalAlign=top;strokeWidth=1;shape=mxgraph.mockup.misc.map;" vertex="1" parent="1">
          <mxGeometry x="47.5" y="1060" width="990" height="310" as="geometry" />
        </mxCell>
        <mxCell id="8gUWTxBggKrRHHZYkB5M-37" value="Peta Provinsi Kep. Bangka Belitung" style="text;html=1;points=[];align=left;verticalAlign=top;spacingTop=-4;fontSize=14;fontFamily=Verdana" vertex="1" parent="1">
          <mxGeometry x="47.5" y="1030" width="70" height="20" as="geometry" />
        </mxCell>
        <mxCell id="8gUWTxBggKrRHHZYkB5M-38" value="&lt;font style=&quot;font-size: 72px;&quot;&gt;0&lt;/font&gt;" style="text;html=1;points=[];align=left;verticalAlign=top;spacingTop=-4;fontSize=14;fontFamily=Verdana" vertex="1" parent="1">
          <mxGeometry x="155" y="260" width="50" height="80" as="geometry" />
        </mxCell>
        <mxCell id="8gUWTxBggKrRHHZYkB5M-39" value="&lt;font style=&quot;font-size: 72px;&quot;&gt;0&lt;/font&gt;" style="text;html=1;points=[];align=left;verticalAlign=top;spacingTop=-4;fontSize=14;fontFamily=Verdana" vertex="1" parent="1">
          <mxGeometry x="510" y="260" width="50" height="80" as="geometry" />
        </mxCell>
        <mxCell id="8gUWTxBggKrRHHZYkB5M-40" value="&lt;font style=&quot;font-size: 72px;&quot;&gt;0&lt;/font&gt;" style="text;html=1;points=[];align=left;verticalAlign=top;spacingTop=-4;fontSize=14;fontFamily=Verdana" vertex="1" parent="1">
          <mxGeometry x="887.5" y="260" width="50" height="80" as="geometry" />
        </mxCell>
      </root>
    </mxGraphModel>
  </diagram>
</mxfile>
